<svg width="850" class="d-none" height="850" viewBox="0 0 843 833" fill="none" xmlns="http://www.w3.org/2000/svg">
  <path fill-rule="evenodd" clip-rule="evenodd" d="M701.893 560.19C664.715 616.236 607.855 665.144 536.481 696.922C535.664 697.285 534.846 697.646 534.029 698.004C546.993 694.087 559.883 689.183 572.588 683.259C631.405 655.832 676.018 611.318 701.893 560.19Z" fill="url(#paint0_linear_510_39)"/>
  <path fill-rule="evenodd" clip-rule="evenodd" d="M737.141 340.99C737.485 450.279 662.24 565.844 537.855 629.221C421.244 688.638 292.909 686.152 204.637 632.448C275.331 716.104 424.05 731.331 558.75 662.698C700.908 590.265 776.68 450.297 737.141 340.99Z" fill="url(#paint1_linear_510_39)"/>
  <path fill-rule="evenodd" clip-rule="evenodd" d="M725.789 270.785C768.052 397.224 689.448 551.981 537.855 629.221C418.004 690.288 285.77 685.966 197.374 627.853C271.356 701.432 419.144 709.199 555.593 639.675C713.939 558.993 797.052 404.777 741.231 295.222C736.803 286.531 731.633 278.383 725.789 270.785Z" fill="white"/>
  <path fill-rule="evenodd" clip-rule="evenodd" d="M621.514 547.983C570.278 582.014 502.613 606.329 426.897 614.287C279.492 629.78 149.045 578.291 106.212 494.891C106.801 498.168 107.501 501.438 108.314 504.698C136.546 617.93 290.328 677.086 451.795 636.827C519.978 619.827 578.629 587.819 621.514 547.983ZM488.002 216C499.922 217.193 511.56 218.956 522.853 221.262C511.532 219.07 499.899 217.308 488.002 216Z" fill="url(#paint2_linear_510_39)"/>
  <path fill-rule="evenodd" clip-rule="evenodd" d="M664.966 512.955C612.311 564.981 526.581 603.809 426.897 614.287C276.176 630.128 143.185 575.94 103.456 489.215C126.444 582.933 262.89 644.077 419.615 627.605C527.126 616.305 617.709 571.263 664.966 512.955Z" fill="white"/>
  <path fill-rule="evenodd" clip-rule="evenodd" d="M711.131 338.349C691.854 428.031 585.728 516.304 442.988 551.893C354.392 573.982 268.722 571.529 202.339 549.72C268.443 590.235 365.452 603.41 465.406 578.489C609.05 542.674 710.386 440.247 711.131 338.349Z" fill="url(#paint3_linear_510_39)"/>
  <path fill-rule="evenodd" clip-rule="evenodd" d="M429.042 475.88C597.403 433.902 712.359 313.53 685.804 207.02C685.615 206.265 685.42 205.512 685.219 204.762C695.382 215.996 703.111 228.741 707.992 242.917C740.516 337.375 634.321 459.593 470.797 515.899C307.274 572.204 148.345 541.276 115.821 446.818C112.798 438.038 110.973 429.018 110.281 419.833C171.112 483.683 296.888 508.829 429.042 475.88Z" fill="url(#paint4_linear_510_39)"/>
  <path fill-rule="evenodd" clip-rule="evenodd" d="M429.042 475.88C597.403 433.902 712.36 313.53 685.804 207.02C681.754 190.78 674.649 175.799 664.917 162.221C687.344 176.915 703.492 195.957 711.437 219.03C743.602 312.445 629.116 436.573 455.725 496.276C282.334 555.979 115.697 528.65 83.5318 435.235C76.9987 416.261 76.5155 396.021 81.3469 375.31C119.242 470.762 269.494 515.659 429.042 475.88Z" fill="white"/>
  <path fill-rule="evenodd" clip-rule="evenodd" d="M395.483 417.176C537.031 397.283 639.787 295.832 624.995 190.578C621.84 168.133 613.595 147.327 601.2 128.675C626.95 146.793 645.326 170.431 653.443 198.736C680.746 293.954 581.592 405.923 431.975 448.825C282.359 491.727 138.937 449.315 111.633 354.097C104.416 328.927 106.035 302.586 115.086 276.66C138.681 373.943 260.332 436.171 395.483 417.176Z" fill="url(#paint5_linear_510_39)"/>
  <path fill-rule="evenodd" clip-rule="evenodd" d="M395.484 417.176C537.031 397.283 639.787 295.831 624.995 190.578C621.766 167.609 613.207 146.357 600.326 127.373C618.857 143.76 632.188 163.675 638.779 186.66C666.083 281.878 567.365 393.722 418.286 436.469C269.208 479.217 126.222 436.68 98.9189 341.462C89.7853 309.61 94.754 275.897 110.993 243.532C111.043 249.869 111.508 256.236 112.404 262.618C127.197 367.871 253.936 437.069 395.484 417.176Z" fill="white"/>
  <path fill-rule="evenodd" clip-rule="evenodd" d="M145.789 215.085C139.702 262.092 170.115 320.021 226.035 359.177C268.751 389.086 316.669 401.264 355.677 395.632C325.29 389.575 292.73 377.051 261.2 358.106C196.012 318.937 152.991 262.996 145.789 215.085Z" fill="url(#paint6_linear_510_39)"/>
  <path fill-rule="evenodd" clip-rule="evenodd" d="M562.615 311.913C518.046 333.559 453.26 338.702 385.778 321.876C279.479 295.373 204.679 223.885 211.81 158.41C201.351 169.152 193.976 181.716 190.451 195.855C174.162 261.184 246.222 335.402 351.4 361.626C444.529 384.846 532.398 362.653 562.615 311.913Z" fill="url(#paint7_linear_510_39)"/>
  <path fill-rule="evenodd" clip-rule="evenodd" d="M566.321 310.051C521.681 333.253 455.155 339.174 385.778 321.876C273.739 293.942 196.693 216.034 213.69 147.864C215.049 142.413 216.968 137.19 219.406 132.206C195.473 144.288 179.062 161.568 173.684 183.134C158.503 244.022 237.022 316.027 349.06 343.962C443.745 367.569 532.068 352.146 566.321 310.051Z" fill="white"/>
  <path fill-rule="evenodd" clip-rule="evenodd" d="M594.09 230.7C561.897 261.726 495.868 273.075 426.098 255.68C349.564 236.597 293.244 189.088 286.59 142.371C273.741 150.08 265.119 160.138 262.095 172.269C251.204 215.95 317.007 269.968 409.069 292.922C501.131 315.875 584.591 299.073 595.482 255.392C597.469 247.422 596.903 239.108 594.09 230.7Z" fill="url(#paint8_linear_510_39)"/>
  <path fill-rule="evenodd" clip-rule="evenodd" d="M594.306 230.492C562.192 261.675 496.025 273.114 426.098 255.68C336.358 233.305 274.41 171.847 287.733 118.41C290.898 105.715 298.027 94.6145 308.261 85.3677C276.717 96.1365 254.464 115.108 248.158 140.4C234.472 195.292 301.089 259.166 396.95 283.067C490.728 306.448 577.753 282.915 594.306 230.492Z" fill="white"/>
  <path fill-rule="evenodd" clip-rule="evenodd" d="M444.941 191.763C506.016 206.991 562.936 189.622 572.075 152.968C573.186 148.514 573.54 143.981 573.195 139.426C585.885 155.775 591.388 173.41 587.258 189.975C576.924 231.421 510.2 250.472 438.224 232.526C366.249 214.581 316.278 166.434 326.612 124.988C329.964 111.544 339.25 100.456 352.724 92.2227C351.99 94.0352 351.38 95.9025 350.901 97.8228C341.762 134.477 383.865 176.535 444.941 191.763Z" fill="url(#paint9_linear_510_39)"/>
  <path fill-rule="evenodd" clip-rule="evenodd" d="M444.941 191.763C506.016 206.991 562.936 189.622 572.075 152.968C572.464 151.409 572.76 149.84 572.966 148.263C575.613 156.953 576.051 165.699 573.939 174.169C563.929 214.318 500.423 233.055 432.095 216.019C363.767 198.982 316.49 152.625 326.501 112.476C330.985 94.4912 346.204 80.803 367.782 72.7023C359.267 79.5098 353.358 87.9695 350.901 97.8228C341.762 134.477 383.865 176.535 444.941 191.763Z" fill="white"/>
  <path fill-rule="evenodd" clip-rule="evenodd" d="M451.979 170.39C499.596 182.262 543.667 169.947 550.415 142.883C557.163 115.819 524.032 84.255 476.415 72.3828C428.798 60.5106 384.727 72.8259 377.979 99.8897C371.231 126.954 404.362 158.518 451.979 170.39ZM460.95 133.656C484.562 139.543 506.5 133.098 509.95 119.26C513.4 105.423 497.056 89.4329 473.444 83.5458C449.832 77.6587 427.894 84.1038 424.444 97.9413C420.994 111.779 437.338 127.769 460.95 133.656Z" fill="url(#paint10_linear_510_39)"/>
  <path fill-rule="evenodd" clip-rule="evenodd" d="M452.24 161.21C498.606 172.77 541.241 161.892 547.469 136.913C553.697 111.934 521.159 82.3136 474.794 70.7534C428.428 59.1932 385.793 70.0711 379.565 95.0499C373.337 120.029 405.875 149.649 452.24 161.21ZM460.95 133.656C484.562 139.543 506.5 133.098 509.95 119.26C513.4 105.423 497.056 89.4329 473.444 83.5458C449.832 77.6587 427.894 84.1038 424.444 97.9413C420.994 111.779 437.338 127.769 460.95 133.656Z" fill="white"/>
  <defs>
    <linearGradient id="paint0_linear_510_39" x1="477.196" y1="739.387" x2="749.197" y2="540.886" gradientUnits="userSpaceOnUse">
      <stop stop-color="#4E5359"/>
      <stop offset="1" stop-color="#9CA1A5"/>
    </linearGradient>
    <linearGradient id="paint1_linear_510_39" x1="269.696" y1="584.886" x2="673.696" y2="370.886" gradientUnits="userSpaceOnUse">
      <stop stop-color="#4E5359"/>
      <stop offset="1" stop-color="#9CA1A5"/>
    </linearGradient>
    <linearGradient id="paint2_linear_510_39" x1="153.696" y1="189.386" x2="534.196" y2="234.886" gradientUnits="userSpaceOnUse">
      <stop stop-color="#4E5359"/>
      <stop offset="1" stop-color="#9CA1A5"/>
    </linearGradient>
    <linearGradient id="paint3_linear_510_39" x1="171.196" y1="169.386" x2="751.196" y2="154.886" gradientUnits="userSpaceOnUse">
      <stop stop-color="#4E5359"/>
      <stop offset="1" stop-color="#9CA1A5"/>
    </linearGradient>
    <linearGradient id="paint4_linear_510_39" x1="353.016" y1="173.837" x2="767.196" y2="180.886" gradientUnits="userSpaceOnUse">
      <stop stop-color="#4E5359"/>
      <stop offset="1" stop-color="#9CA1A5"/>
    </linearGradient>
    <linearGradient id="paint5_linear_510_39" x1="333.101" y1="104.008" x2="710.696" y2="98.3863" gradientUnits="userSpaceOnUse">
      <stop stop-color="#4E5359"/>
      <stop offset="1" stop-color="#9CA1A5"/>
    </linearGradient>
    <linearGradient id="paint6_linear_510_39" x1="69.9864" y1="158.749" x2="393.033" y2="457.738" gradientUnits="userSpaceOnUse">
      <stop stop-color="#4E5359"/>
      <stop offset="1" stop-color="#9CA1A5"/>
    </linearGradient>
    <linearGradient id="paint7_linear_510_39" x1="217.696" y1="275.886" x2="543.696" y2="332.386" gradientUnits="userSpaceOnUse">
      <stop stop-color="#4E5359"/>
      <stop offset="1" stop-color="#9CA1A5"/>
    </linearGradient>
    <linearGradient id="paint8_linear_510_39" x1="290.696" y1="213.886" x2="577.696" y2="240.386" gradientUnits="userSpaceOnUse">
      <stop stop-color="#4E5359"/>
      <stop offset="1" stop-color="#9CA1A5"/>
    </linearGradient>
    <linearGradient id="paint9_linear_510_39" x1="355.196" y1="179.386" x2="606.196" y2="190.886" gradientUnits="userSpaceOnUse">
      <stop stop-color="#4E5359"/>
      <stop offset="1" stop-color="#9CA1A5"/>
    </linearGradient>
    <linearGradient id="paint10_linear_510_39" x1="402.196" y1="148.386" x2="562.196" y2="151.886" gradientUnits="userSpaceOnUse">
      <stop stop-color="#4E5359"/>
      <stop offset="1" stop-color="#9CA1A5"/>
    </linearGradient>
  </defs>
</svg>
